<?xml version="1.0" encoding="UTF-8" standalone="no"?>
<svg
   xmlns:dc="http://purl.org/dc/elements/1.1/"
   xmlns:cc="http://creativecommons.org/ns#"
   xmlns:rdf="http://www.w3.org/1999/02/22-rdf-syntax-ns#"
   xmlns:svg="http://www.w3.org/2000/svg"
   xmlns="http://www.w3.org/2000/svg"
   xmlns:sodipodi="http://sodipodi.sourceforge.net/DTD/sodipodi-0.dtd"
   xmlns:inkscape="http://www.inkscape.org/namespaces/inkscape"
   inkscape:export-ydpi="300.13"
   inkscape:export-xdpi="300.13"
   inkscape:export-filename="/home/mega/Downloads/pestrez/pastrezVlist6.png"
   sodipodi:docname="drawing.svg"
   inkscape:version="1.0beta1 (32d4812, 2019-09-19)"
   id="svg8"
   version="1.1"
   viewBox="0 0 282.2222 282.23465"
   height="282.23465mm"
   width="282.2222mm">
  <defs
     id="defs2">
    <clipPath
       id="clipPath300"
       clipPathUnits="userSpaceOnUse">
      <path
         inkscape:connector-curvature="0"
         id="path298"
         d="M 2,0 H 800 V 620.001 H 2 Z" />
    </clipPath>
    <clipPath
       id="clipPath308"
       clipPathUnits="userSpaceOnUse">
      <path
         inkscape:connector-curvature="0"
         id="path306"
         d="M 12.9607,426.554 H 212.25 V 141.55 H 12.9607 Z" />
    </clipPath>
    <clipPath
       id="clipPath324"
       clipPathUnits="userSpaceOnUse">
      <path
         inkscape:connector-curvature="0"
         id="path322"
         d="M 80.7363,252.765 H 308.532 V -22.3419 H 80.7363 Z" />
    </clipPath>
    <clipPath
       id="clipPath340"
       clipPathUnits="userSpaceOnUse">
      <path
         inkscape:connector-curvature="0"
         id="path338"
         d="M -41.6083,418.626 H 75.5032 V 301.778 H -41.6083 Z" />
    </clipPath>
    <clipPath
       id="clipPath356"
       clipPathUnits="userSpaceOnUse">
      <path
         inkscape:connector-curvature="0"
         id="path354"
         d="m 189.78,36.0524 h 47.441 V -16.0572 H 189.78 Z" />
    </clipPath>
    <clipPath
       id="clipPath384"
       clipPathUnits="userSpaceOnUse">
      <path
         inkscape:connector-curvature="0"
         id="path382"
         d="M 253.011,133.484 H 326.81 V 77.6421 h -73.799 z" />
    </clipPath>
    <clipPath
       id="clipPath400"
       clipPathUnits="userSpaceOnUse">
      <path
         inkscape:connector-curvature="0"
         id="path398"
         d="m 274.953,111.63 h 50.08 V 78.9858 h -50.08 z" />
    </clipPath>
    <clipPath
       id="clipPath516"
       clipPathUnits="userSpaceOnUse">
      <path
         inkscape:connector-curvature="0"
         id="path514"
         d="M 44.7253,191.251 H 79.049 V 159.627 H 44.7253 Z" />
    </clipPath>
    <clipPath
       id="clipPath1412"
       clipPathUnits="userSpaceOnUse">
      <path
         inkscape:connector-curvature="0"
         id="path1410"
         d="M 326.282,135.419 H 428.707 V 64.905 H 326.282 Z" />
    </clipPath>
    <clipPath
       id="clipPath1476"
       clipPathUnits="userSpaceOnUse">
      <path
         inkscape:connector-curvature="0"
         id="path1474"
         d="M 382.74,153.487 H 617.857 V -32.701 H 382.74 Z" />
    </clipPath>
    <clipPath
       id="clipPath1528"
       clipPathUnits="userSpaceOnUse">
      <path
         inkscape:connector-curvature="0"
         id="path1526"
         d="m 241.114,149.921 h 56.608 V 85.2342 h -56.608 z" />
    </clipPath>
    <clipPath
       id="clipPath1568"
       clipPathUnits="userSpaceOnUse">
      <path
         inkscape:connector-curvature="0"
         id="path1566"
         d="m 256.589,160.106 h 44.385 v -23.911 h -44.385 z" />
    </clipPath>
    <clipPath
       id="clipPath1584"
       clipPathUnits="userSpaceOnUse">
      <path
         inkscape:connector-curvature="0"
         id="path1582"
         d="m 234.58,126.756 h 20.532 V 96.874 H 234.58 Z" />
    </clipPath>
    <clipPath
       id="clipPath1600"
       clipPathUnits="userSpaceOnUse">
      <path
         inkscape:connector-curvature="0"
         id="path1598"
         d="m 251.13,132.366 h 43.616 V 81.4752 H 251.13 Z" />
    </clipPath>
    <clipPath
       id="clipPath1616"
       clipPathUnits="userSpaceOnUse">
      <path
         inkscape:connector-curvature="0"
         id="path1614"
         d="m 641.085,73.3686 h 20.517 v -18.338 h -20.517 z" />
    </clipPath>
    <clipPath
       id="clipPath1632"
       clipPathUnits="userSpaceOnUse">
      <path
         inkscape:connector-curvature="0"
         id="path1630"
         d="m 662.099,51.8203 h 20.045 V 6.30283 h -20.045 z" />
    </clipPath>
    <clipPath
       id="clipPath1648"
       clipPathUnits="userSpaceOnUse">
      <path
         inkscape:connector-curvature="0"
         id="path1646"
         d="m 669.232,24.9586 h 10.035 V -2.26254 h -10.035 z" />
    </clipPath>
    <clipPath
       id="clipPath1704"
       clipPathUnits="userSpaceOnUse">
      <path
         inkscape:connector-curvature="0"
         id="path1702"
         d="M 176.665,64.6702 H 489.793 V -14.6754 H 176.665 Z" />
    </clipPath>
    <clipPath
       id="clipPath1808"
       clipPathUnits="userSpaceOnUse">
      <path
         inkscape:connector-curvature="0"
         id="path1806"
         d="M 654.889,241.946 H 843.535 V -17.1065 H 654.889 Z" />
    </clipPath>
    <clipPath
       id="clipPath1828"
       clipPathUnits="userSpaceOnUse">
      <path
         inkscape:connector-curvature="0"
         id="path1826"
         d="m 729.2,225.089 h 58.508 V 71.6737 H 729.2 Z" />
    </clipPath>
    <clipPath
       id="clipPath4160"
       clipPathUnits="userSpaceOnUse">
      <path
         inkscape:connector-curvature="0"
         id="path4158"
         d="m 193.093,60.4657 h 3.695 v -2.9788 h -3.695 z" />
    </clipPath>
    <clipPath
       id="clipPath4176"
       clipPathUnits="userSpaceOnUse">
      <path
         inkscape:connector-curvature="0"
         id="path4174"
         d="m 194.855,55.1164 h 2.704 v -1.6698 h -2.704 z" />
    </clipPath>
    <clipPath
       id="clipPath4192"
       clipPathUnits="userSpaceOnUse">
      <path
         inkscape:connector-curvature="0"
         id="path4190"
         d="m 203.25,54.9873 h 2.872 v -2.8757 h -2.872 z" />
    </clipPath>
    <clipPath
       id="clipPath4208"
       clipPathUnits="userSpaceOnUse">
      <path
         inkscape:connector-curvature="0"
         id="path4206"
         d="m 210.069,48.9468 h 2.159 v -1.8432 h -2.159 z" />
    </clipPath>
    <clipPath
       id="clipPath4224"
       clipPathUnits="userSpaceOnUse">
      <path
         inkscape:connector-curvature="0"
         id="path4222"
         d="m 218.879,50.2987 h 2.424 v -4.4035 h -2.424 z" />
    </clipPath>
    <clipPath
       id="clipPath4240"
       clipPathUnits="userSpaceOnUse">
      <path
         inkscape:connector-curvature="0"
         id="path4238"
         d="m 220.57,39.8334 h 1.47 v -1.4706 h -1.47 z" />
    </clipPath>
    <clipPath
       id="clipPath4256"
       clipPathUnits="userSpaceOnUse">
      <path
         inkscape:connector-curvature="0"
         id="path4254"
         d="m 211.913,40.246 h 3.289 v -2.6606 h -3.289 z" />
    </clipPath>
    <clipPath
       id="clipPath4272"
       clipPathUnits="userSpaceOnUse">
      <path
         inkscape:connector-curvature="0"
         id="path4270"
         d="m 229.594,44.5135 h 1.462 v -1.4616 h -1.462 z" />
    </clipPath>
    <clipPath
       id="clipPath4288"
       clipPathUnits="userSpaceOnUse">
      <path
         inkscape:connector-curvature="0"
         id="path4286"
         d="m 229.215,36.2899 h 2.653 v -1.7183 h -2.653 z" />
    </clipPath>
    <clipPath
       id="clipPath4304"
       clipPathUnits="userSpaceOnUse">
      <path
         inkscape:connector-curvature="0"
         id="path4302"
         d="m 230.313,29.3806 h 2.556 v -1.9673 h -2.556 z" />
    </clipPath>
    <clipPath
       id="clipPath4320"
       clipPathUnits="userSpaceOnUse">
      <path
         inkscape:connector-curvature="0"
         id="path4318"
         d="m 241.941,38.3761 h 2.88 v -3.2642 h -2.88 z" />
    </clipPath>
    <clipPath
       id="clipPath4336"
       clipPathUnits="userSpaceOnUse">
      <path
         inkscape:connector-curvature="0"
         id="path4334"
         d="m 245.829,31.5722 h 2.637 V 28.937 h -2.637 z" />
    </clipPath>
    <clipPath
       id="clipPath4352"
       clipPathUnits="userSpaceOnUse">
      <path
         inkscape:connector-curvature="0"
         id="path4350"
         d="m 243.07,20.2814 h 1.685 v -0.9826 h -1.685 z" />
    </clipPath>
    <clipPath
       id="clipPath4368"
       clipPathUnits="userSpaceOnUse">
      <path
         inkscape:connector-curvature="0"
         id="path4366"
         d="m 251.472,40.6179 h 1.712 v -2.7176 h -1.712 z" />
    </clipPath>
    <clipPath
       id="clipPath4384"
       clipPathUnits="userSpaceOnUse">
      <path
         inkscape:connector-curvature="0"
         id="path4382"
         d="m 232.379,48.8836 h 1.691 v -2.3543 h -1.691 z" />
    </clipPath>
    <clipPath
       id="clipPath4400"
       clipPathUnits="userSpaceOnUse">
      <path
         inkscape:connector-curvature="0"
         id="path4398"
         d="m 234.593,43.1342 h 1.948 v -1.9475 h -1.948 z" />
    </clipPath>
    <clipPath
       id="clipPath4416"
       clipPathUnits="userSpaceOnUse">
      <path
         inkscape:connector-curvature="0"
         id="path4414"
         d="m 221.542,31.1384 h 3.821 v -2.6458 h -3.821 z" />
    </clipPath>
    <clipPath
       id="clipPath4432"
       clipPathUnits="userSpaceOnUse">
      <path
         inkscape:connector-curvature="0"
         id="path4430"
         d="m 236.701,34.8344 h 1.997 v -2.3703 h -1.997 z" />
    </clipPath>
    <clipPath
       id="clipPath4448"
       clipPathUnits="userSpaceOnUse">
      <path
         inkscape:connector-curvature="0"
         id="path4446"
         d="m 238.522,26.2054 h 1.728 v -1.411 h -1.728 z" />
    </clipPath>
    <clipPath
       id="clipPath4464"
       clipPathUnits="userSpaceOnUse">
      <path
         inkscape:connector-curvature="0"
         id="path4462"
         d="m 216.552,33.401 h 2.301 v -2.0273 h -2.301 z" />
    </clipPath>
    <clipPath
       id="clipPath4480"
       clipPathUnits="userSpaceOnUse">
      <path
         inkscape:connector-curvature="0"
         id="path4478"
         d="m 216.573,58.324 h 2.991 v -3.3821 h -2.991 z" />
    </clipPath>
    <clipPath
       id="clipPath4496"
       clipPathUnits="userSpaceOnUse">
      <path
         inkscape:connector-curvature="0"
         id="path4494"
         d="m 212.204,64.0707 h 2.642 V 61.428 h -2.642 z" />
    </clipPath>
    <clipPath
       id="clipPath4512"
       clipPathUnits="userSpaceOnUse">
      <path
         inkscape:connector-curvature="0"
         id="path4510"
         d="m 201.76,72.0139 h 1.886 v -2.2737 h -1.886 z" />
    </clipPath>
    <clipPath
       id="clipPath4528"
       clipPathUnits="userSpaceOnUse">
      <path
         inkscape:connector-curvature="0"
         id="path4526"
         d="m 209.298,75.2728 h 2.976 v -3.0196 h -2.976 z" />
    </clipPath>
    <clipPath
       id="clipPath4544"
       clipPathUnits="userSpaceOnUse">
      <path
         inkscape:connector-curvature="0"
         id="path4542"
         d="m 254.075,15.7387 h 1.554 v -1.5542 h -1.554 z" />
    </clipPath>
    <clipPath
       id="clipPath4560"
       clipPathUnits="userSpaceOnUse">
      <path
         inkscape:connector-curvature="0"
         id="path4558"
         d="m 259.356,20.3988 h 2.341 v -2.0136 h -2.341 z" />
    </clipPath>
    <clipPath
       id="clipPath4576"
       clipPathUnits="userSpaceOnUse">
      <path
         inkscape:connector-curvature="0"
         id="path4574"
         d="m 261.05,13.3464 h 1.099 v -1.0983 h -1.099 z" />
    </clipPath>
    <clipPath
       id="clipPath4592"
       clipPathUnits="userSpaceOnUse">
      <path
         inkscape:connector-curvature="0"
         id="path4590"
         d="m 277.668,17.788 h 2.285 v -3.4459 h -2.285 z" />
    </clipPath>
    <clipPath
       id="clipPath4608"
       clipPathUnits="userSpaceOnUse">
      <path
         inkscape:connector-curvature="0"
         id="path4606"
         d="m 279.385,13.5797 h 2.472 v -1.873 h -2.472 z" />
    </clipPath>
    <clipPath
       id="clipPath4624"
       clipPathUnits="userSpaceOnUse">
      <path
         inkscape:connector-curvature="0"
         id="path4622"
         d="m 286.99,15.3414 h 2.822 v -3.6332 h -2.822 z" />
    </clipPath>
    <clipPath
       id="clipPath4640"
       clipPathUnits="userSpaceOnUse">
      <path
         inkscape:connector-curvature="0"
         id="path4638"
         d="m 288.42,29.0544 h 1.648 v -3.1412 h -1.648 z" />
    </clipPath>
    <clipPath
       id="clipPath4656"
       clipPathUnits="userSpaceOnUse">
      <path
         inkscape:connector-curvature="0"
         id="path4654"
         d="m 294.689,18.9083 h 2.085 v -3.1562 h -2.085 z" />
    </clipPath>
    <clipPath
       id="clipPath4672"
       clipPathUnits="userSpaceOnUse">
      <path
         inkscape:connector-curvature="0"
         id="path4670"
         d="m 300.795,13.6125 h 1.795 v -2.6332 h -1.795 z" />
    </clipPath>
    <clipPath
       id="clipPath4692"
       clipPathUnits="userSpaceOnUse">
      <path
         inkscape:connector-curvature="0"
         id="path4690"
         d="m 299.72,36.2273 h 0.772 v -1.1417 h -0.772 z" />
    </clipPath>
    <clipPath
       id="clipPath4712"
       clipPathUnits="userSpaceOnUse">
      <path
         inkscape:connector-curvature="0"
         id="path4710"
         d="m 321.721,27.5588 h 0.858 v -1.5101 h -0.858 z" />
    </clipPath>
    <clipPath
       id="clipPath4732"
       clipPathUnits="userSpaceOnUse">
      <path
         inkscape:connector-curvature="0"
         id="path4730"
         d="m 314.21,24.4395 h 2.315 v -4.0084 h -2.315 z" />
    </clipPath>
    <clipPath
       id="clipPath4748"
       clipPathUnits="userSpaceOnUse">
      <path
         inkscape:connector-curvature="0"
         id="path4746"
         d="m 306.795,28.7308 h 2.287 v -3.1509 h -2.287 z" />
    </clipPath>
    <clipPath
       id="clipPath4764"
       clipPathUnits="userSpaceOnUse">
      <path
         inkscape:connector-curvature="0"
         id="path4762"
         d="m 298.906,28.6934 h 0.863 v -2.2872 h -0.863 z" />
    </clipPath>
    <clipPath
       id="clipPath4780"
       clipPathUnits="userSpaceOnUse">
      <path
         inkscape:connector-curvature="0"
         id="path4778"
         d="m 340.182,14.537 h 1.473 v -4.3391 h -1.473 z" />
    </clipPath>
    <clipPath
       id="clipPath4796"
       clipPathUnits="userSpaceOnUse">
      <path
         inkscape:connector-curvature="0"
         id="path4794"
         d="m 345.958,13.1046 h 1.584 V 9.44731 h -1.584 z" />
    </clipPath>
    <clipPath
       id="clipPath4812"
       clipPathUnits="userSpaceOnUse">
      <path
         inkscape:connector-curvature="0"
         id="path4810"
         d="m 351.315,15.2947 h 0.571 v -2.9652 h -0.571 z" />
    </clipPath>
    <clipPath
       id="clipPath4828"
       clipPathUnits="userSpaceOnUse">
      <path
         inkscape:connector-curvature="0"
         id="path4826"
         d="m 345.109,25.786 h 0.976 v -3.3834 h -0.976 z" />
    </clipPath>
    <clipPath
       id="clipPath4844"
       clipPathUnits="userSpaceOnUse">
      <path
         inkscape:connector-curvature="0"
         id="path4842"
         d="m 362.98,23.4446 h 1.031 v -4.6022 h -1.031 z" />
    </clipPath>
    <clipPath
       id="clipPath4860"
       clipPathUnits="userSpaceOnUse">
      <path
         inkscape:connector-curvature="0"
         id="path4858"
         d="m 368.93,34.9684 h 1.637 v -5.2137 h -1.637 z" />
    </clipPath>
    <clipPath
       id="clipPath4876"
       clipPathUnits="userSpaceOnUse">
      <path
         inkscape:connector-curvature="0"
         id="path4874"
         d="m 373.087,23.4247 h 0.99 v -5.6144 h -0.99 z" />
    </clipPath>
    <clipPath
       id="clipPath4892"
       clipPathUnits="userSpaceOnUse">
      <path
         inkscape:connector-curvature="0"
         id="path4890"
         d="m 367.533,20.1195 h 0.651 v -3.6954 h -0.651 z" />
    </clipPath>
    <clipPath
       id="clipPath4908"
       clipPathUnits="userSpaceOnUse">
      <path
         inkscape:connector-curvature="0"
         id="path4906"
         d="m 381.919,35.3297 h 0.883 v -3.4021 h -0.883 z" />
    </clipPath>
    <clipPath
       id="clipPath4924"
       clipPathUnits="userSpaceOnUse">
      <path
         inkscape:connector-curvature="0"
         id="path4922"
         d="m 388.86,28.1421 h 1.147 v -4.5656 h -1.147 z" />
    </clipPath>
    <clipPath
       id="clipPath4940"
       clipPathUnits="userSpaceOnUse">
      <path
         inkscape:connector-curvature="0"
         id="path4938"
         d="m 382.3,18.0009 h 0.741 V 13.8215 H 382.3 Z" />
    </clipPath>
    <clipPath
       id="clipPath4956"
       clipPathUnits="userSpaceOnUse">
      <path
         inkscape:connector-curvature="0"
         id="path4954"
         d="m 393.337,18.3076 h 0.899 v -3.0147 h -0.899 z" />
    </clipPath>
    <clipPath
       id="clipPath4972"
       clipPathUnits="userSpaceOnUse">
      <path
         inkscape:connector-curvature="0"
         id="path4970"
         d="m 349.752,37.1695 h 1.435 v -3.4829 h -1.435 z" />
    </clipPath>
    <clipPath
       id="clipPath4988"
       clipPathUnits="userSpaceOnUse">
      <path
         inkscape:connector-curvature="0"
         id="path4986"
         d="m 342.849,37.1134 h 1.467 v -4.0869 h -1.467 z" />
    </clipPath>
    <clipPath
       id="clipPath5004"
       clipPathUnits="userSpaceOnUse">
      <path
         inkscape:connector-curvature="0"
         id="path5002"
         d="m 419.626,18.6253 h 0.512 v -2.8906 h -0.512 z" />
    </clipPath>
    <clipPath
       id="clipPath5020"
       clipPathUnits="userSpaceOnUse">
      <path
         inkscape:connector-curvature="0"
         id="path5018"
         d="m 426.423,23.3993 h 1.541 v -2.6572 h -1.541 z" />
    </clipPath>
    <clipPath
       id="clipPath5036"
       clipPathUnits="userSpaceOnUse">
      <path
         inkscape:connector-curvature="0"
         id="path5034"
         d="m 426.143,15.1241 h 1.069 V 10.588 h -1.069 z" />
    </clipPath>
    <clipPath
       id="clipPath5052"
       clipPathUnits="userSpaceOnUse">
      <path
         inkscape:connector-curvature="0"
         id="path5050"
         d="m 437.616,11.8347 h 0.661 V 9.51572 h -0.661 z" />
    </clipPath>
    <clipPath
       id="clipPath5068"
       clipPathUnits="userSpaceOnUse">
      <path
         inkscape:connector-curvature="0"
         id="path5066"
         d="m 434.623,28.8723 h 2.051 v -3.1227 h -2.051 z" />
    </clipPath>
    <clipPath
       id="clipPath5084"
       clipPathUnits="userSpaceOnUse">
      <path
         inkscape:connector-curvature="0"
         id="path5082"
         d="m 442.231,18.0108 h 1.629 v -4.1652 h -1.629 z" />
    </clipPath>
    <clipPath
       id="clipPath5100"
       clipPathUnits="userSpaceOnUse">
      <path
         inkscape:connector-curvature="0"
         id="path5098"
         d="m 432.691,7.68266 h 1.16 V 4.00797 h -1.16 z" />
    </clipPath>
    <clipPath
       id="clipPath5584"
       clipPathUnits="userSpaceOnUse">
      <path
         inkscape:connector-curvature="0"
         id="path5582"
         d="m 400.498,144.415 h 6.447 v -5.298 h -6.447 z" />
    </clipPath>
    <clipPath
       id="clipPath5600"
       clipPathUnits="userSpaceOnUse">
      <path
         inkscape:connector-curvature="0"
         id="path5598"
         d="m 397.662,148.297 h 3.114 v -2.668 h -3.114 z" />
    </clipPath>
    <clipPath
       id="clipPath5616"
       clipPathUnits="userSpaceOnUse">
      <path
         inkscape:connector-curvature="0"
         id="path5614"
         d="m 397.244,153.767 h 2.733 v -2.214 h -2.733 z" />
    </clipPath>
    <clipPath
       id="clipPath5632"
       clipPathUnits="userSpaceOnUse">
      <path
         inkscape:connector-curvature="0"
         id="path5630"
         d="m 409.756,134.341 h 3.653 v -2.911 h -3.653 z" />
    </clipPath>
    <clipPath
       id="clipPath5648"
       clipPathUnits="userSpaceOnUse">
      <path
         inkscape:connector-curvature="0"
         id="path5646"
         d="m 413.39,144.648 h 1.924 v -2.51 h -1.924 z" />
    </clipPath>
    <clipPath
       id="clipPath5664"
       clipPathUnits="userSpaceOnUse">
      <path
         inkscape:connector-curvature="0"
         id="path5662"
         d="m 419.454,136.437 h 2.166 v -2.139 h -2.166 z" />
    </clipPath>
    <clipPath
       id="clipPath5680"
       clipPathUnits="userSpaceOnUse">
      <path
         inkscape:connector-curvature="0"
         id="path5678"
         d="m 415.172,125.724 h 4.989 v -3.046 h -4.989 z" />
    </clipPath>
    <clipPath
       id="clipPath5696"
       clipPathUnits="userSpaceOnUse">
      <path
         inkscape:connector-curvature="0"
         id="path5694"
         d="m 425.637,145.655 h 2.252 v -3.02 h -2.252 z" />
    </clipPath>
    <clipPath
       id="clipPath5712"
       clipPathUnits="userSpaceOnUse">
      <path
         inkscape:connector-curvature="0"
         id="path5710"
         d="m 427.911,130.143 h 1.617 v -1.655 h -1.617 z" />
    </clipPath>
    <clipPath
       id="clipPath5728"
       clipPathUnits="userSpaceOnUse">
      <path
         inkscape:connector-curvature="0"
         id="path5726"
         d="m 425.659,115.96 h 4.444 v -3.813 h -4.444 z" />
    </clipPath>
    <clipPath
       id="clipPath5744"
       clipPathUnits="userSpaceOnUse">
      <path
         inkscape:connector-curvature="0"
         id="path5742"
         d="m 423.428,135.098 h 3.085 v -2.374 h -3.085 z" />
    </clipPath>
    <clipPath
       id="clipPath5760"
       clipPathUnits="userSpaceOnUse">
      <path
         inkscape:connector-curvature="0"
         id="path5758"
         d="m 432.649,122.097 h 2.986 v -2.864 h -2.986 z" />
    </clipPath>
    <clipPath
       id="clipPath5776"
       clipPathUnits="userSpaceOnUse">
      <path
         inkscape:connector-curvature="0"
         id="path5774"
         d="m 432.879,109.549 h 3.649 v -3.106 h -3.649 z" />
    </clipPath>
    <clipPath
       id="clipPath5792"
       clipPathUnits="userSpaceOnUse">
      <path
         inkscape:connector-curvature="0"
         id="path5790"
         d="m 423.867,120.813 h 3.04 v -1.873 h -3.04 z" />
    </clipPath>
    <clipPath
       id="clipPath5812"
       clipPathUnits="userSpaceOnUse">
      <path
         inkscape:connector-curvature="0"
         id="path5810"
         d="m 448.367,85.8688 h 2.14 v -1.2169 h -2.14 z" />
    </clipPath>
    <clipPath
       id="clipPath5828"
       clipPathUnits="userSpaceOnUse">
      <path
         inkscape:connector-curvature="0"
         id="path5826"
         d="m 454.823,91.6986 h 2.457 v -2.0999 h -2.457 z" />
    </clipPath>
    <clipPath
       id="clipPath5844"
       clipPathUnits="userSpaceOnUse">
      <path
         inkscape:connector-curvature="0"
         id="path5842"
         d="m 453.438,78.3754 h 2.637 v -1.6536 h -2.637 z" />
    </clipPath>
    <clipPath
       id="clipPath5860"
       clipPathUnits="userSpaceOnUse">
      <path
         inkscape:connector-curvature="0"
         id="path5858"
         d="m 468.071,90.1904 h 2.45 V 87.735 h -2.45 z" />
    </clipPath>
    <clipPath
       id="clipPath5876"
       clipPathUnits="userSpaceOnUse">
      <path
         inkscape:connector-curvature="0"
         id="path5874"
         d="m 463.47,99.4024 h 2.021 V 97.136 h -2.021 z" />
    </clipPath>
    <clipPath
       id="clipPath5892"
       clipPathUnits="userSpaceOnUse">
      <path
         inkscape:connector-curvature="0"
         id="path5890"
         d="m 459.876,84.9299 h 1.265 v -1.0303 h -1.265 z" />
    </clipPath>
    <clipPath
       id="clipPath5908"
       clipPathUnits="userSpaceOnUse">
      <path
         inkscape:connector-curvature="0"
         id="path5906"
         d="m 464.933,71.7133 h 1.445 v -1.0078 h -1.445 z" />
    </clipPath>
    <clipPath
       id="clipPath5924"
       clipPathUnits="userSpaceOnUse">
      <path
         inkscape:connector-curvature="0"
         id="path5922"
         d="m 460.669,61.7793 h 2.573 V 60.103 h -2.573 z" />
    </clipPath>
    <clipPath
       id="clipPath5940"
       clipPathUnits="userSpaceOnUse">
      <path
         inkscape:connector-curvature="0"
         id="path5938"
         d="m 455.342,68.0634 h 1.219 v -0.7338 h -1.219 z" />
    </clipPath>
    <clipPath
       id="clipPath5956"
       clipPathUnits="userSpaceOnUse">
      <path
         inkscape:connector-curvature="0"
         id="path5954"
         d="m 468.846,54.0851 h 3.1 v -1.9272 h -3.1 z" />
    </clipPath>
    <clipPath
       id="clipPath5972"
       clipPathUnits="userSpaceOnUse">
      <path
         inkscape:connector-curvature="0"
         id="path5970"
         d="m 472.684,67.8094 h 2.446 v -1.9847 h -2.446 z" />
    </clipPath>
    <clipPath
       id="clipPath5988"
       clipPathUnits="userSpaceOnUse">
      <path
         inkscape:connector-curvature="0"
         id="path5986"
         d="m 486.846,69.5167 h 2.288 v -1.8138 h -2.288 z" />
    </clipPath>
    <clipPath
       id="clipPath6004"
       clipPathUnits="userSpaceOnUse">
      <path
         inkscape:connector-curvature="0"
         id="path6002"
         d="m 481.103,80.1101 h 1.716 v -1.9817 h -1.716 z" />
    </clipPath>
    <clipPath
       id="clipPath6020"
       clipPathUnits="userSpaceOnUse">
      <path
         inkscape:connector-curvature="0"
         id="path6018"
         d="m 472.404,84.2163 h 1.993 v -1.7354 h -1.993 z" />
    </clipPath>
    <clipPath
       id="clipPath6036"
       clipPathUnits="userSpaceOnUse">
      <path
         inkscape:connector-curvature="0"
         id="path6034"
         d="m 470.922,75.7226 h 3.017 v -2.195 h -3.017 z" />
    </clipPath>
    <clipPath
       id="clipPath6052"
       clipPathUnits="userSpaceOnUse">
      <path
         inkscape:connector-curvature="0"
         id="path6050"
         d="m 487.35,86.892 h 2.486 v -2.0241 h -2.486 z" />
    </clipPath>
    <clipPath
       id="clipPath6068"
       clipPathUnits="userSpaceOnUse">
      <path
         inkscape:connector-curvature="0"
         id="path6066"
         d="m 493.34,75.5483 h 2.497 v -2.497 h -2.497 z" />
    </clipPath>
    <clipPath
       id="clipPath6084"
       clipPathUnits="userSpaceOnUse">
      <path
         inkscape:connector-curvature="0"
         id="path6082"
         d="m 497.536,25.7968 h 3.121 v -1.7562 h -3.121 z" />
    </clipPath>
    <clipPath
       id="clipPath6100"
       clipPathUnits="userSpaceOnUse">
      <path
         inkscape:connector-curvature="0"
         id="path6098"
         d="m 506.362,30.7335 h 1.985 v -1.9992 h -1.985 z" />
    </clipPath>
    <clipPath
       id="clipPath6116"
       clipPathUnits="userSpaceOnUse">
      <path
         inkscape:connector-curvature="0"
         id="path6114"
         d="m 503.775,17.4749 h 4.279 v -2.4738 h -4.279 z" />
    </clipPath>
    <clipPath
       id="clipPath6132"
       clipPathUnits="userSpaceOnUse">
      <path
         inkscape:connector-curvature="0"
         id="path6130"
         d="m 505.147,23.3873 h 3.216 v -1.7629 h -3.216 z" />
    </clipPath>
    <clipPath
       id="clipPath6148"
       clipPathUnits="userSpaceOnUse">
      <path
         inkscape:connector-curvature="0"
         id="path6146"
         d="m 519.733,37.4293 h 3.397 v -2.912 h -3.397 z" />
    </clipPath>
    <clipPath
       id="clipPath6164"
       clipPathUnits="userSpaceOnUse">
      <path
         inkscape:connector-curvature="0"
         id="path6162"
         d="m 525.442,28.0828 h 3.368 v -2.452 h -3.368 z" />
    </clipPath>
    <clipPath
       id="clipPath6180"
       clipPathUnits="userSpaceOnUse">
      <path
         inkscape:connector-curvature="0"
         id="path6178"
         d="m 516.243,26.8884 h 2.987 V 24.91 h -2.987 z" />
    </clipPath>
    <clipPath
       id="clipPath6196"
       clipPathUnits="userSpaceOnUse">
      <path
         inkscape:connector-curvature="0"
         id="path6194"
         d="m 520.107,16.3052 h 3.187 v -1.9528 h -3.187 z" />
    </clipPath>
    <clipPath
       id="clipPath6212"
       clipPathUnits="userSpaceOnUse">
      <path
         inkscape:connector-curvature="0"
         id="path6210"
         d="m 511.909,10.6943 h 4.18 V 9.21204 h -4.18 z" />
    </clipPath>
    <clipPath
       id="clipPath6228"
       clipPathUnits="userSpaceOnUse">
      <path
         inkscape:connector-curvature="0"
         id="path6226"
         d="m 526.109,7.60458 h 3.842 V 5.34299 h -3.842 z" />
    </clipPath>
    <clipPath
       id="clipPath6244"
       clipPathUnits="userSpaceOnUse">
      <path
         inkscape:connector-curvature="0"
         id="path6242"
         d="m 536.191,19.8476 h 2.763 v -2.1782 h -2.763 z" />
    </clipPath>
    <clipPath
       id="clipPath6260"
       clipPathUnits="userSpaceOnUse">
      <path
         inkscape:connector-curvature="0"
         id="path6258"
         d="m 512.311,18.6583 h 3.541 v -2.0358 h -3.541 z" />
    </clipPath>
    <clipPath
       id="clipPath6276"
       clipPathUnits="userSpaceOnUse">
      <path
         inkscape:connector-curvature="0"
         id="path6274"
         d="m 527.688,17.521 h 2.344 v -1.6785 h -2.344 z" />
    </clipPath>
    <clipPath
       id="clipPath6292"
       clipPathUnits="userSpaceOnUse">
      <path
         inkscape:connector-curvature="0"
         id="path6290"
         d="m 544.117,17.1681 h 4.33 v -2.6416 h -4.33 z" />
    </clipPath>
    <clipPath
       id="clipPath6308"
       clipPathUnits="userSpaceOnUse">
      <path
         inkscape:connector-curvature="0"
         id="path6306"
         d="m 550.566,28.0907 h 2.392 v -1.8368 h -2.392 z" />
    </clipPath>
    <clipPath
       id="clipPath6324"
       clipPathUnits="userSpaceOnUse">
      <path
         inkscape:connector-curvature="0"
         id="path6322"
         d="m 536.24,10.6893 h 1.953 V 9.47577 h -1.953 z" />
    </clipPath>
    <clipPath
       id="clipPath6340"
       clipPathUnits="userSpaceOnUse">
      <path
         inkscape:connector-curvature="0"
         id="path6338"
         d="m 536.093,33.6108 h 3.083 v -2.5181 h -3.083 z" />
    </clipPath>
    <clipPath
       id="clipPath6356"
       clipPathUnits="userSpaceOnUse">
      <path
         inkscape:connector-curvature="0"
         id="path6354"
         d="m 530.219,46.8427 h 2.924 v -2.436 h -2.924 z" />
    </clipPath>
    <clipPath
       id="clipPath6372"
       clipPathUnits="userSpaceOnUse">
      <path
         inkscape:connector-curvature="0"
         id="path6370"
         d="m 537.468,42.2623 h 2.202 v -1.8888 h -2.202 z" />
    </clipPath>
    <clipPath
       id="clipPath6388"
       clipPathUnits="userSpaceOnUse">
      <path
         inkscape:connector-curvature="0"
         id="path6386"
         d="m 546.862,36.5074 h 2.647 v -1.4828 h -2.647 z" />
    </clipPath>
    <clipPath
       id="clipPath6404"
       clipPathUnits="userSpaceOnUse">
      <path
         inkscape:connector-curvature="0"
         id="path6402"
         d="m 556.913,22.8041 h 2.08 v -1.5339 h -2.08 z" />
    </clipPath>
    <clipPath
       id="clipPath6420"
       clipPathUnits="userSpaceOnUse">
      <path
         inkscape:connector-curvature="0"
         id="path6418"
         d="m 540.042,25.1759 h 2.028 V 24.118 h -2.028 z" />
    </clipPath>
    <clipPath
       id="clipPath6436"
       clipPathUnits="userSpaceOnUse">
      <path
         inkscape:connector-curvature="0"
         id="path6434"
         d="m 575.927,3.30591 h 2.774 V 0.820404 h -2.774 z" />
    </clipPath>
    <clipPath
       id="clipPath6452"
       clipPathUnits="userSpaceOnUse">
      <path
         inkscape:connector-curvature="0"
         id="path6450"
         d="m 588.301,7.10339 h 1.924 V 4.89027 h -1.924 z" />
    </clipPath>
    <clipPath
       id="clipPath6468"
       clipPathUnits="userSpaceOnUse">
      <path
         inkscape:connector-curvature="0"
         id="path6466"
         d="m 587.945,14.8569 h 2.093 v -1.5467 h -2.093 z" />
    </clipPath>
    <clipPath
       id="clipPath6484"
       clipPathUnits="userSpaceOnUse">
      <path
         inkscape:connector-curvature="0"
         id="path6482"
         d="m 595.205,10.0274 h 1.982 V 8.16005 h -1.982 z" />
    </clipPath>
    <clipPath
       id="clipPath6500"
       clipPathUnits="userSpaceOnUse">
      <path
         inkscape:connector-curvature="0"
         id="path6498"
         d="m 596.212,0.632904 h 2.529 V -1.40804 h -2.529 z" />
    </clipPath>
    <clipPath
       id="clipPath6516"
       clipPathUnits="userSpaceOnUse">
      <path
         inkscape:connector-curvature="0"
         id="path6514"
         d="m 603.934,10.9952 h 1.674 V 9.02663 h -1.674 z" />
    </clipPath>
    <clipPath
       id="clipPath6532"
       clipPathUnits="userSpaceOnUse">
      <path
         inkscape:connector-curvature="0"
         id="path6530"
         d="m 599.549,22.5931 h 1.734 v -2.0248 h -1.734 z" />
    </clipPath>
  </defs>
  <sodipodi:namedview
     inkscape:document-rotation="0"
     inkscape:window-maximized="0"
     inkscape:window-y="0"
     inkscape:window-x="0"
     inkscape:window-height="1080"
     inkscape:window-width="1920"
     showgrid="false"
     inkscape:current-layer="layer1"
     inkscape:document-units="mm"
     inkscape:cy="318.93514"
     inkscape:cx="584.21386"
     inkscape:zoom="1.2414935"
     inkscape:pageshadow="2"
     inkscape:pageopacity="0"
     borderopacity="1.0"
     bordercolor="#666666"
     pagecolor="#4c4c4c"
     id="base" />
  <metadata
     id="metadata5">
    <rdf:RDF>
      <cc:Work
         rdf:about="">
        <dc:format>image/svg+xml</dc:format>
        <dc:type
           rdf:resource="http://purl.org/dc/dcmitype/StillImage" />
        <dc:title></dc:title>
      </cc:Work>
    </rdf:RDF>
  </metadata>
  <g
     transform="translate(107.47122,-7.7160134)"
     id="layer1"
     inkscape:groupmode="layer"
     inkscape:label="Layer 1">
    <path
       sodipodi:nodetypes="scsccccccsccssccccscssccsscsccscsscccsccccccccccccccsccscscscscsccccccccsccsccscscccsccsccccsccccsccccccscsccscscccccccccccccccccccssccscccccsssccscscccccccscsccccccccccsccsccccsccccscccccccccccccccssccccccscccccsccccccsscsccccccc"
       inkscape:connector-curvature="0"
       id="path328"
       d="m -80.795841,277.69645 c -0.27612,-5.1833 1.354574,-8.50044 5.415148,-11.01538 2.362346,-1.46315 3.556823,-1.76922 7.766544,-1.99018 l 4.974846,-0.2611 0.0035,-42.82014 c 0.0024,-29.12478 0.209329,-43.57443 0.647508,-45.17856 0.883383,-3.23398 3.072012,-5.95652 6.016461,-7.48413 2.025845,-1.05102 3.761442,-1.32832 9.621951,-1.53732 l 7.150261,-0.25503 3.935237,-4.34498 c 9.446246,-10.4298 22.787581,-18.54829 39.1254266,-23.80861 l 6.6548014,-2.14266 -3.3865674,-2.32399 c -8.129943,-5.57906 -15.5365539,-14.74124 -19.6694196,-24.3316 -2.024518,-4.69792 -2.309858,-5.06265 -4.462716,-5.70453 -5.41157,-1.61343 -8.990774,-4.616575 -11.227987,-9.420879 -3.919652,-8.417212 0.422842,-19.12745 9.014995,-22.234414 1.411093,-0.510247 1.905498,-0.992237 1.66383,-1.622018 -0.867759,-2.261335 -1.525538,-10.822373 -1.176147,-15.307585 1.554008,-19.949211 14.9776771,-31.956793 40.680452,-36.389004 3.40619,-0.587363 10.527696,-1.012107 19.76949,-1.179095 7.944985,-0.143555 15.571792,-0.401465 16.948464,-0.573135 3.223608,-0.401982 5.885779,-2.617958 6.392956,-5.321458 0.460099,-2.4525285 2.54127,-4.0543007 4.597271,-3.5382755 1.96363,0.492836 7.169079,6.3512115 9.175013,10.3258385 1.887515,3.73998 3.569338,8.998633 3.569338,11.160483 0,0.797883 1.030733,3.082748 2.290514,5.077495 7.948241,12.585139 11.226811,23.655649 9.230771,31.168938 -1.20636,4.540857 -1.15862,5.127874 0.4183,5.143273 1.69755,0.01559 6.05572,1.989978 8.48243,3.840923 1.03557,0.789872 2.7014,3.074162 3.70182,5.076196 3.07079,6.145203 2.33766,12.834502 -2.03492,18.567242 -1.52564,1.999895 -7.87758,5.520795 -9.9601,5.520795 -1.00384,0 -1.56735,0.84799 -2.92293,4.39848 -3.492542,9.14763 -11.803308,19.63856 -19.928356,25.15617 l -3.579684,2.43092 7.593148,2.49947 c 14.793762,4.86966 26.727792,12.02074 36.521662,21.88437 l 5.93375,5.976 7.13296,0.2543 c 6.6701,0.23783 7.31806,0.3687 9.9857,2.017 1.80927,1.1179 3.39191,2.72431 4.32677,4.39173 l 1.47402,2.62909 0.16524,43.99688 0.16524,43.9969 4.39756,0.28223 c 5.57744,0.35793 9.2262,2.40343 11.33835,6.35626 1.18629,2.22011 1.06543,5.18561 0.88803,8.51575 0,0 0.51524,6.54637 -4.2916,9.29547 l -114.960108,0.46671 -110.332571,0.98452 c -7.437517,-2.41934 -9.039117,-8.91939 -9.236741,-12.62932 z m 18.525034,2.13736 c -0.202678,-1.0134 -0.368506,-3.13598 -0.368506,-4.71689 v -2.87433 h -3.859257 c -3.311346,0 -4.064731,0.20546 -5.306483,1.44722 -0.912267,0.91226 -1.447225,2.12087 -1.447225,3.26963 0,1.14879 0.534958,2.35741 1.447225,3.26967 1.267447,1.26745 1.97239,1.44721 5.674989,1.44721 h 4.227763 z m 194.022257,0.41949 1.6543,-1.42302 v -50.44624 -50.44628 l -1.343,-1.34294 -1.34301,-1.34296 H 39.295653 -52.128449 l -1.422969,1.65432 -1.422975,1.6543 v 49.46654 c 0,35.09885 0.190792,49.88531 0.656872,50.90823 0.361283,0.79293 1.223586,1.71608 1.91623,2.05148 0.849503,0.41133 30.751287,0.62278 91.878898,0.64968 l 90.619533,0.0399 z M 34.056598,248.34334 c -15.224942,-4.16603 -20.358887,-23.13606 -9.313155,-34.41226 3.698564,-3.77574 7.9591,-5.5895 13.735223,-5.84723 6.686918,-0.29839 10.584501,1.23468 15.418565,6.06475 3.062635,3.06013 3.818822,4.24643 4.864274,7.63124 1.433106,4.63985 1.551105,7.72566 0.456753,11.94451 -2.793243,10.76822 -14.460785,17.5471 -25.16166,14.61899 z m 9.894892,-8.26574 c 8.70864,-3.6378 10.560809,-15.4096 3.358608,-21.34627 -8.14114,-6.71063 -20.328812,-0.96668 -20.328812,9.58081 0,3.87489 0.966434,6.44189 3.307709,8.78567 3.627034,3.63096 9.196006,4.84556 13.662495,2.97979 z M 149.352,280.22911 c 0.91226,-0.91226 1.44723,-2.12088 1.44723,-3.26967 0,-3.01039 -2.23006,-4.71685 -6.16411,-4.71685 h -3.26964 l -0.007,2.50584 c -0.004,1.3782 -0.17095,3.50079 -0.37195,4.71685 l -0.36546,2.21104 h 3.64159 c 3.08025,0 3.86469,-0.22308 5.08883,-1.44721 z M 104.83106,164.66065 c -5.45167,-5.55483 -16.711401,-12.56541 -25.676597,-15.98686 -5.320514,-2.0305 -14.669247,-4.75159 -18.084325,-5.2637 l -2.673193,-0.40088 -0.41682,3.14994 c -0.840085,6.34859 -4.888306,12.11215 -10.633647,15.13942 -2.611969,1.37629 -3.6498,1.56584 -8.573007,1.56584 -4.923208,0 -5.961037,-0.18964 -8.573008,-1.56584 -5.725398,-3.01676 -9.793742,-8.79206 -10.626425,-15.08496 -0.225271,-1.70249 -0.622804,-3.09545 -0.883393,-3.09545 -1.504806,0 -14.5801234,3.73481 -18.43150739,5.26474 -10.37924061,4.12307 -20.53191561,10.33763 -26.02571161,15.93056 l -2.925883,2.97866 H 39.360605 107.41366 Z M 42.772273,154.58427 c 3.914166,-1.63505 6.631658,-4.91899 7.394829,-8.93626 l 0.359468,-1.89223 -3.960318,0.41819 c -5.185877,0.54763 -10.045738,0.52891 -15.302543,-0.0591 l -4.266914,-0.47713 0.371258,1.95115 c 0.510018,2.68046 1.56431,4.61251 3.540457,6.48813 3.440858,3.26582 7.827999,4.19292 11.863763,2.50708 z m 8.677796,-19.45591 c 17.657803,-4.80122 31.493841,-19.39909 35.142459,-37.077406 1.089239,-5.277647 1.424535,-13.79445 0.622892,-15.822089 -0.354407,-0.896391 -1.239238,-0.436641 -6.260864,3.253239 l -5.848112,4.297153 0.15534,6.249161 c 0.08547,3.437041 -0.140924,7.349382 -0.503011,8.694092 -0.795517,2.95432 -3.727303,6.44181 -6.329283,7.529 -2.758782,1.15269 -14.871521,1.07726 -17.713785,-0.1103 -4.908891,-2.05106 -6.635743,-5.26127 -6.635743,-12.335821 v -5.03517 H 39.433415 34.78687 l -0.242022,5.533671 c -0.208249,4.76125 -0.459523,5.8623 -1.800253,7.88829 -2.544624,3.84518 -5.40104,4.85594 -13.723026,4.85594 -8.343412,0 -11.1748644,-1.00715 -13.7473154,-4.88988 -1.476472,-2.22851 -1.602281,-2.93441 -1.877329,-10.533341 l -0.294805,-8.144763 -5.6012869,-4.088594 c -6.4770826,-4.727821 -6.3800019,-4.768424 -6.4442576,2.693722 -0.074627,8.667155 2.2576446,17.177586 6.913798,25.228236 1.15393751,1.9952 4.5578935,6.04573 7.7246545,9.19193 4.5704844,4.54082 6.6843184,6.14962 10.9681054,8.34767 5.289172,2.71391 9.711382,4.25844 14.935308,5.21638 3.999595,0.73345 15.740073,0.17694 19.851635,-0.94109 z M 26.33791,106.885 c 2.506742,-1.29629 3.143143,-3.5476 2.910802,-10.297198 -0.191224,-5.555088 -0.304673,-6.021213 -1.83862,-7.55407 -1.59777,-1.596614 -1.789299,-1.63365 -8.450298,-1.63365 h -6.815469 l -1.720462,1.925532 c -1.6671624,1.865876 -1.7198134,2.112475 -1.6995664,7.959736 0.03231,9.3255 1.082818,10.40247 10.1791454,10.43536 3.935362,0.0134 6.306229,-0.25229 7.434468,-0.83571 z m -10.069221,-4.76208 c -4.614607,-2.506083 -2.56362,-9.829063 2.752873,-9.829063 5.402083,0 7.379749,7.40229 2.633413,9.856723 -2.088554,1.08004 -3.358614,1.07351 -5.386286,-0.0276 z m 51.53373,3.89822 1.925532,-1.72045 v -6.815472 c 0,-6.660997 -0.03706,-6.852532 -1.633649,-8.450305 -1.532839,-1.533949 -1.998983,-1.6474 -7.554064,-1.838622 -9.905883,-0.340975 -11.153799,0.851266 -11.153799,10.656287 0,9.087062 0.747686,9.791512 10.456256,9.851662 5.857672,0.0363 6.090521,-0.0134 7.959724,-1.6831 z m -11.161276,-4.12463 c -4.970625,-3.096956 -1.665011,-10.758369 4.16129,-9.644615 3.660508,0.699753 5.281877,6.334041 2.558881,8.892165 -1.99551,1.87467 -4.473649,2.15216 -6.720171,0.75245 z M -16.920035,88.311648 c -0.02418,-8.088494 -0.04446,-8.214379 -1.203783,-7.457109 -4.848321,3.166975 -5.1251,10.832312 -0.521874,14.453222 0.860923,0.677202 1.606919,1.23126 1.657768,1.23126 0.05082,0 0.0814,-3.702315 0.06788,-8.227373 z M 99.35581,93.001165 c 2.54959,-3.734204 1.3023,-9.655159 -2.56765,-12.188855 l -1.24103,-0.812513 v 8.284709 8.284711 l 1.24103,-0.812513 c 0.68257,-0.446893 1.83801,-1.686866 2.56765,-2.755539 z M 45.508932,87.176636 c 0.794072,-1.257891 2.45568,-2.916165 3.692455,-3.685046 1.982202,-1.232329 3.106564,-1.422682 9.487963,-1.606462 6.862019,-0.197663 7.406713,-0.126575 10.452157,1.363407 1.974977,0.966275 3.519677,1.387362 4.009178,1.092917 0.437973,-0.263468 3.497929,-2.450464 6.79989,-4.860036 6.771881,-4.941642 6.515067,-4.086165 3.321801,-11.065252 -2.213871,-4.838575 -4.439658,-7.815666 -8.182094,-10.943955 l -2.607485,-2.179597 -2.61733,1.462862 C 68.425933,57.560032 65.15286,58.771391 62.591949,59.44739 56.243529,61.123135 42.437827,61.122533 27.8657,59.44559 22.028569,58.773981 14.787914,58.222151 11.775361,58.219322 5.3649466,58.212722 3.1015716,59.093495 -0.37912739,62.946231 -2.6086592,65.4143 -6.6264368,72.995912 -6.6264368,74.735235 c 0,0.852514 10.4722544,8.952486 12.6596584,9.791874 0.519897,0.199446 1.399707,-0.02986 1.955132,-0.50969 0.555417,-0.479851 1.911749,-1.175326 3.0140654,-1.545538 2.585168,-0.868201 13.437595,-0.871833 16.038289,-0.0045 2.207856,0.735587 6.228756,4.266757 6.758277,5.935128 0.289522,0.91219 1.037487,1.062032 5.301625,1.062032 h 4.964551 l 1.443771,-2.287075 z M -4.4916463,53.542948 C 1.2173216,47.193219 7.2680086,45.535702 31.10855,43.790808 44.386957,42.818939 49.700639,41.684884 55.527382,38.579256 61.947678,35.157257 67.569827,28.954657 69.684835,22.96011 c 0.997098,-2.826079 0.566076,-3.132327 -1.425238,-1.012671 -0.758515,0.807394 -2.861027,2.032795 -4.672251,2.723116 -2.985616,1.137917 -4.642084,1.269182 -17.738563,1.405694 C 25.193526,26.29154 15.932736,27.808091 5.9284716,32.613556 -5.28897,38.001778 -10.753191,46.495427 -10.730991,58.509237 l 0.0087,4.716882 1.8822624,-3.470134 c 1.0352481,-1.908574 2.9920133,-4.704446 4.3483668,-6.213037 z"
       style="fill:#000000;stroke-width:0.589608" />
  </g>
</svg>
