<svg height="511pt" viewBox="0 0 511.99963 511" width="511pt" xmlns="http://www.w3.org/2000/svg"><path d="m403.8125 145.007812c0 19.898438-16.132812 36.03125-36.03125 36.03125-19.902344 0-36.035156-16.132812-36.035156-36.03125 0-19.902343 16.132812-36.035156 36.035156-36.035156 19.898438 0 36.03125 16.132813 36.03125 36.035156zm0 0" fill="#ffb48e"/><path d="m333.949219 256.578125c0 43.117187-34.957031 78.070313-78.074219 78.070313s-78.070312-34.953126-78.070312-78.070313 34.953124-78.074219 78.070312-78.074219 78.074219 34.957032 78.074219 78.074219zm0 0" fill="#ffcb7c"/><g fill="#ffd89e"><path d="m219.179688 256.578125c0 11.425781-9.261719 20.6875-20.6875 20.6875-11.425782 0-20.6875-9.261719-20.6875-20.6875s9.261718-20.691406 20.6875-20.691406c11.425781 0 20.6875 9.265625 20.6875 20.691406zm0 0"/><path d="m286.417969 184.707031c-14.085938 1.40625-25.085938 13.292969-25.085938 27.75 0 15.402344 12.484375 27.886719 27.886719 27.886719s27.886719-12.484375 27.886719-27.886719c0-1.65625-.152344-3.273437-.425781-4.847656zm0 0"/><path d="m322.0625 297.996094c-3.992188-10.519532-14.15625-17.996094-26.074219-17.996094-15.402343 0-27.886719 12.484375-27.886719 27.886719 0 9.503906 4.753907 17.886719 12.007813 22.925781zm0 0"/></g><path d="m134.597656 437.914062c0 33.167969-26.886718 60.054688-60.054687 60.054688s-60.058594-26.886719-60.058594-60.054688c0-33.167968 26.890625-60.058593 60.058594-60.058593s60.054687 26.890625 60.054687 60.058593zm0 0" fill="#b0e7f8"/><path d="m255.875 344.660156c9.554688 0 18.753906-1.535156 27.375-4.363281.132812-.042969.269531-.078125.402344-.128906 19.320312-6.4375 35.691406-19.398438 46.476562-36.257813.28125-.386718.535156-.796875.761719-1.21875 8.28125-13.421875 13.066406-29.21875 13.066406-46.113281 0-20.597656-7.109375-39.566406-19-54.582031-.324219-.476563-.679687-.929688-1.078125-1.339844-8.796875-10.679688-20.0625-19.253906-32.90625-24.855469-.378906-.195312-.777344-.363281-1.183594-.511719-10.445312-4.371093-21.902343-6.792968-33.914062-6.792968-48.570312 0-88.082031 39.515625-88.082031 88.082031s39.515625 88.082031 88.082031 88.082031zm-57.382812-98.761718c5.890624 0 10.679687 4.789062 10.679687 10.679687 0 5.886719-4.789063 10.679687-10.679687 10.679687-5.890626 0-10.679688-4.792968-10.679688-10.679687 0-5.890625 4.789062-10.679687 10.679688-10.679687zm83.765624 73.417968c-2.644531-3.175781-4.148437-7.207031-4.148437-11.429687 0-9.855469 8.019531-17.878907 17.878906-17.878907 5.734375 0 11.0625 2.8125 14.386719 7.300782-7.207031 9.617187-16.902344 17.273437-28.117188 22.007812zm24.808594-107.519531c.011719.21875.03125.441406.03125.660156 0 9.855469-8.019531 17.878907-17.878906 17.878907-9.855469 0-17.878906-8.023438-17.878906-17.878907 0-8.40625 5.742187-15.480469 13.6875-17.371093 8.453125 4.023437 15.9375 9.746093 22.039062 16.710937zm-51.191406-23.28125c1.285156 0 2.558594.042969 3.820312.113281-5.257812 6.519532-8.375 14.816406-8.375 23.828125 0 20.894531 17 37.894531 37.898438 37.894531 12.773438 0 24.082031-6.355468 30.949219-16.066406 2.433593 6.988282 3.769531 14.484375 3.769531 22.292969 0 7.777344-1.328125 15.246094-3.742188 22.214844-6.683593-5.546875-15.210937-8.804688-24.207031-8.804688-20.898437 0-37.898437 17-37.898437 37.898438 0 5.789062 1.34375 11.402343 3.792968 16.472656-1.980468.175781-3.980468.28125-6.007812.28125-26.566406 0-49.613281-15.3125-60.816406-37.5625 1.125.125 2.273437.195313 3.433594.195313 16.925781 0 30.699218-13.769532 30.699218-30.695313 0-16.929687-13.773437-30.699219-30.699218-30.699219-1.160157 0-2.304688.070313-3.433594.195313 11.203125-22.25 34.25-37.558594 60.816406-37.558594zm0 0"/><path d="m367.78125 191.050781c25.386719 0 46.042969-20.65625 46.042969-46.042969 0-25.390624-20.65625-46.042968-46.042969-46.042968s-46.042969 20.652344-46.042969 46.042968c0 25.386719 20.65625 46.042969 46.042969 46.042969zm0-72.070312c14.347656 0 26.023438 11.675781 26.023438 26.027343 0 14.347657-11.675782 26.023438-26.023438 26.023438-14.351562 0-26.023438-11.675781-26.023438-26.023438 0-14.351562 11.671876-26.027343 26.023438-26.027343zm0 0"/><path d="m74.539062 367.847656c-38.632812 0-70.0625 31.429688-70.0625 70.066406 0 38.632813 31.429688 70.0625 70.0625 70.0625 38.636719 0 70.066407-31.429687 70.066407-70.0625 0-38.636718-31.429688-70.066406-70.066407-70.066406zm0 120.113282c-14.28125 0-27.175781-6.023438-36.304687-15.65625h21.640625c5.527344 0 10.007812-4.480469 10.007812-10.007813s-4.480468-10.007813-10.007812-10.007813h-33.265625c-1.371094-4.558593-2.117187-9.378906-2.117187-14.375 0-27.597656 22.453124-50.046874 50.046874-50.046874 17.464844 0 32.859376 8.996093 41.8125 22.589843h-17.972656c-5.527344 0-10.007812 4.484375-10.007812 10.011719s4.480468 10.007812 10.007812 10.007812h25.652344c.363281 2.429688.554688 4.910157.554688 7.4375 0 27.59375-22.449219 50.046876-50.046876 50.046876zm0 0"/><path d="m58.34375 410.460938c-2.632812 0-5.214844 1.070312-7.078125 2.933593-1.859375 1.859375-2.933594 4.433594-2.933594 7.074219 0 2.632812 1.070313 5.214844 2.933594 7.078125 1.863281 1.859375 4.445313 2.933594 7.078125 2.933594s5.214844-1.074219 7.074219-2.933594c1.863281-1.863281 2.933593-4.445313 2.933593-7.078125s-1.070312-5.214844-2.933593-7.074219c-1.863281-1.863281-4.441407-2.933593-7.074219-2.933593zm0 0"/><path d="m19.011719 354.488281c1.59375 3.863281 5.324219 6.195313 9.257812 6.195313 1.273438 0 2.566407-.246094 3.816407-.761719 5.109374-2.105469 7.542968-7.957031 5.433593-13.070313l-.367187-.894531c-2.09375-5.113281-7.933594-7.566406-13.054688-5.476562-5.117187 2.09375-7.570312 7.9375-5.476562 13.054687zm0 0"/><path d="m25.578125 309.386719-.210937-.941407c-1.214844-5.394531-6.574219-8.785156-11.964844-7.566406-5.394532 1.214844-8.777344 6.570313-7.566406 11.964844l.230468 1.007812c1.0625 4.640626 5.183594 7.78125 9.746094 7.78125.738281 0 1.492188-.085937 2.242188-.253906 5.390624-1.234375 8.757812-6.605468 7.523437-11.992187zm0 0"/><path d="m10.652344 281.035156c5.519531-.328125 9.730468-5.0625 9.40625-10.582031l-.054688-.9375c-.292968-5.519531-5-9.761719-10.523437-9.464844-5.519531.289063-9.757813 5.003907-9.464844 10.523438l.0585938 1.054687c.3125002 5.320313 4.7226562 9.421875 9.9843752 9.421875.195312 0 .394531-.003906.59375-.015625zm0 0"/><path d="m10 240.027344c.359375.039062.71875.058594 1.070312.058594 5.054688 0 9.394532-3.816407 9.941407-8.957032l.101562-.933594c.613281-5.492187-3.339843-10.445312-8.832031-11.0625-5.488281-.605468-10.445312 3.339844-11.0625 8.832032l-.113281 1.054687c-.585938 5.496094 3.398437 10.425781 8.894531 11.007813zm0 0"/><path d="m16.101562 199.476562c.902344.25 1.8125.371094 2.707032.371094 4.375 0 8.394531-2.890625 9.632812-7.3125l.253906-.90625c1.523438-5.3125-1.550781-10.855468-6.863281-12.378906-5.316406-1.523438-10.859375 1.550781-12.378906 6.867188l-.289063 1.019531c-1.492187 5.324219 1.613282 10.847656 6.9375 12.339843zm0 0"/><path d="m48.003906 124.183594c1.742188 1.210937 3.734375 1.792968 5.707032 1.792968 3.167968 0 6.28125-1.5 8.226562-4.296874l.539062-.769532c3.183594-4.515625 2.101563-10.761718-2.417968-13.945312-4.515625-3.1875-10.761719-2.105469-13.945313 2.414062l-.613281.875c-3.15625 4.539063-2.035156 10.773438 2.503906 13.929688zm0 0"/><path d="m264.503906 20.511719.957032.039062c.132812.003907.269531.007813.402343.007813 5.34375 0 9.78125-4.226563 9.992188-9.613282.21875-5.527343-4.082031-10.179687-9.605469-10.398437l-1.042969-.039063c-5.527343-.210937-10.160156 4.125-10.355469 9.652344-.195312 5.523438 4.128907 10.160156 9.652344 10.351563zm0 0"/><path d="m223.910156 22.414062c.429688 0 .867188-.027343 1.304688-.085937l.945312-.121094c5.484375-.6875 9.375-5.691406 8.6875-11.175781s-5.703125-9.371094-11.175781-8.6875l-1.042969.132812c-5.480468.714844-9.34375 5.738282-8.632812 11.21875.65625 5.042969 4.960937 8.71875 9.914062 8.71875zm0 0"/><path d="m145.828125 46.265625c1.503906 0 3.03125-.339844 4.464844-1.058594l.859375-.425781c4.953125-2.453125 6.980468-8.457031 4.527344-13.414062-2.453126-4.953126-8.457032-6.980469-13.410157-4.527344l-.925781.460937c-4.945312 2.472657-6.949219 8.484375-4.480469 13.429688 1.757813 3.507812 5.289063 5.535156 8.964844 5.535156zm0 0"/><path d="m110.847656 67.585938c2.050782 0 4.121094-.628907 5.902344-1.929688l.777344-.566406c4.472656-3.246094 5.46875-9.503906 2.222656-13.980469-3.246094-4.472656-9.503906-5.46875-13.980469-2.222656l-.835937.609375c-4.460938 3.261718-5.433594 9.523437-2.171875 13.988281 1.957031 2.679687 5 4.101563 8.085937 4.101563zm0 0"/><path d="m79.859375 94.40625c2.59375 0 5.191406-1.003906 7.152344-3.003906l.679687-.691406c3.878906-3.9375 3.832032-10.277344-.105468-14.15625-3.9375-3.878907-10.273438-3.835938-14.15625.101562l-.722657.738281c-3.867187 3.949219-3.800781 10.285157.148438 14.152344 1.945312 1.910156 4.476562 2.859375 7.003906 2.859375zm0 0"/><path d="m303.539062 25.167969.933594.191406c.691406.144531 1.382813.214844 2.0625.214844 4.636719 0 8.796875-3.238281 9.785156-7.957031 1.132813-5.410157-2.332031-10.71875-7.742187-11.851563l-1.027344-.210937c-5.414062-1.109376-10.703125 2.382812-11.8125 7.800781s2.382813 10.703125 7.800781 11.8125zm0 0"/><path d="m28.890625 160.488281c1.378906.648438 2.832031.957031 4.265625.957031 3.753906 0 7.351562-2.121093 9.058594-5.738281l.40625-.855469c2.386718-4.984374.28125-10.964843-4.703125-13.351562-4.988281-2.386719-10.964844-.28125-13.351563 4.703125l-.457031.960937c-2.359375 5-.21875 10.964844 4.78125 13.324219zm0 0"/><path d="m390.421875 450.761719-.8125.5625c-4.546875 3.140625-5.6875 9.375-2.542969 13.925781 1.941406 2.808594 5.066406 4.320312 8.242188 4.320312 1.960937 0 3.945312-.578124 5.683594-1.777343l.828124-.574219c4.542969-3.148438 5.675782-9.382812 2.527344-13.929688-3.148437-4.542968-9.382812-5.675781-13.925781-2.527343zm0 0"/><path d="m420.742188 425.75-.695313.675781c-3.96875 3.847657-4.066406 10.183594-.21875 14.152344 1.960937 2.023437 4.570313 3.042969 7.1875 3.042969 2.507813 0 5.019531-.9375 6.964844-2.824219l.738281-.714844c3.957031-3.863281 4.035156-10.199219.175781-14.15625s-10.195312-4.035156-14.152343-.175781zm0 0"/><path d="m491.953125 248.34375.03125.9375c.160156 5.425781 4.609375 9.71875 10 9.71875.101563 0 .199219-.003906.300781-.007812 5.523438-.160157 9.871094-4.773438 9.710938-10.296876l-.035156-1.058593c-.195313-5.523438-4.851563-9.84375-10.355469-9.648438-5.523438.195313-9.847657 4.832031-9.652344 10.355469zm0 0"/><path d="m487.363281 209.289062.191407.953126c.953124 4.757812 5.132812 8.046874 9.804687 8.046874.652344 0 1.3125-.0625 1.976563-.195312 5.417968-1.085938 8.933593-6.363281 7.847656-11.78125l-.203125-1.007812c-1.101563-5.417969-6.386719-8.917969-11.800781-7.816407-5.417969 1.101563-8.917969 6.382813-7.816407 11.800781zm0 0"/><path d="m341.253906 36.257812.910156.355469c1.199219.46875 2.4375.691407 3.652344.691407 3.996094 0 7.773438-2.414063 9.320313-6.359376 2.015625-5.148437-.519531-10.953124-5.667969-12.972656l-.960938-.375c-5.148437-2.003906-10.953124.550782-12.953124 5.703125-2.003907 5.152344.550781 10.953125 5.699218 12.957031zm0 0"/><path d="m451.089844 106.1875c4.242187-3.542969 4.808594-9.855469 1.265625-14.097656l-.679688-.804688c-3.5625-4.222656-9.878906-4.753906-14.105469-1.191406-4.222656 3.566406-4.753906 9.882812-1.1875 14.105469l.609376.726562c1.976562 2.367188 4.820312 3.589844 7.6875 3.589844 2.261718 0 4.539062-.761719 6.410156-2.328125zm0 0"/><path d="m480.511719 358.070312c-4.9375-2.484374-10.953125-.496093-13.441407 4.441407l-.433593.859375c-2.507813 4.929687-.542969 10.953125 4.386719 13.457031 1.453124.738281 3 1.089844 4.527343 1.089844 3.648438 0 7.164063-2.003907 8.929688-5.476563l.472656-.933594c2.484375-4.9375.496094-10.953124-4.441406-13.4375zm0 0"/><path d="m501.289062 278.992188c-5.480468-.710938-10.503906 3.15625-11.214843 8.636718l-.125.933594c-.746094 5.476562 3.089843 10.523438 8.570312 11.265625.457031.0625.910157.09375 1.359375.09375 4.929688 0 9.222656-3.640625 9.90625-8.660156l.140625-1.050781c.710938-5.484376-3.15625-10.503907-8.636719-11.21875zm0 0"/><path d="m494.238281 319.394531c-5.28125-1.625-10.882812 1.335938-12.511719 6.621094l-.285156.921875c-1.644531 5.277344 1.296875 10.890625 6.574219 12.539062.992187.308594 1.996094.453126 2.984375.453126 4.261719 0 8.214844-2.746094 9.550781-7.03125l.308594-.992188c1.628906-5.285156-1.335937-10.882812-6.621094-12.511719zm0 0"/><path d="m476.339844 171.570312.335937.878907c1.519531 4 5.320313 6.460937 9.363281 6.460937 1.179688 0 2.378907-.210937 3.546876-.652344 5.167968-1.960937 7.769531-7.742187 5.808593-12.910156l-.378906-.988281c-1.992187-5.160156-7.789063-7.726563-12.945313-5.730469-5.15625 1.988282-7.722656 7.785156-5.730468 12.941406zm0 0"/><path d="m460.53125 393.902344c-4.457031-3.269532-10.722656-2.304688-13.992188 2.152344l-.566406.773437c-3.289062 4.445313-2.351562 10.714844 2.09375 14 1.792969 1.324219 3.875 1.960937 5.945313 1.960937 3.066406 0 6.089843-1.402343 8.054687-4.058593l.617188-.835938c3.269531-4.460937 2.304687-10.722656-2.152344-13.992187zm0 0"/><path d="m183.863281 31.058594c.96875 0 1.953125-.140625 2.925781-.4375l.921876-.28125c5.296874-1.59375 8.292968-7.175782 6.699218-12.46875-1.597656-5.296875-7.183594-8.292969-12.472656-6.699219l-.992188.300781c-5.285156 1.613282-8.265624 7.207032-6.652343 12.496094 1.316406 4.3125 5.285156 7.089844 9.570312 7.089844zm0 0"/><path d="m241.621094 492.375-.96875-.058594c-5.515625-.34375-10.273438 3.839844-10.621094 9.355469s3.839844 10.273437 9.359375 10.621094l1.03125.0625c.203125.011719.40625.019531.609375.019531 5.253906 0 9.664062-4.097656 9.980469-9.410156.332031-5.515625-3.875-10.261719-9.390625-10.589844zm0 0"/><path d="m202.683594 486.785156-.933594-.214844c-5.375-1.261718-10.769531 2.078126-12.027344 7.460938-1.261718 5.382812 2.078125 10.769531 7.460938 12.027344l1.019531.238281c.753906.171875 1.507813.257813 2.25.257813 4.558594 0 8.679687-3.140626 9.746094-7.773438 1.238281-5.386719-2.125-10.757812-7.515625-11.996094zm0 0"/><path d="m376.613281 53.5.824219.496094c1.613281.96875 3.390625 1.429687 5.144531 1.429687 3.398438 0 6.714844-1.730469 8.589844-4.855469 2.847656-4.738281 1.3125-10.890624-3.425781-13.734374l-.894532-.535157c-4.753906-2.828125-10.894531-1.269531-13.722656 3.480469-2.824218 4.75-1.265625 10.890625 3.484375 13.71875zm0 0"/><path d="m165.238281 474.785156-.875-.363281c-5.097656-2.144531-10.964843.246094-13.109375 5.34375-2.140625 5.09375.25 10.964844 5.347656 13.105469l.972657.40625c1.253906.519531 2.550781.765625 3.828125.765625 3.925781 0 7.652344-2.324219 9.25-6.175781 2.117187-5.109376-.304688-10.964844-5.414063-13.082032zm0 0"/><path d="m280.9375 491.484375-.949219.097656c-5.5.558594-9.507812 5.46875-8.949219 10.96875.523438 5.15625 4.875 9 9.949219 9 .335938 0 .675781-.015625 1.019531-.050781l1.042969-.109375c5.496094-.582031 9.480469-5.511719 8.898438-11.007813-.585938-5.5-5.539063-9.480468-11.011719-8.898437zm0 0"/><path d="m356.371094 470.417969-.855469.402343c-5.011719 2.335938-7.179687 8.289063-4.84375 13.300782 1.695313 3.640625 5.308594 5.785156 9.078125 5.785156 1.414062 0 2.855469-.304688 4.222656-.941406l.945313-.445313c5-2.359375 7.136719-8.328125 4.777343-13.324219-2.359374-5-8.328124-7.140624-13.324218-4.777343zm0 0"/><path d="m319.546875 484.117188-.921875.257812c-5.332031 1.464844-8.464844 6.976562-6.996094 12.304688 1.222656 4.441406 5.25 7.355468 9.644532 7.355468.878906 0 1.773437-.117187 2.660156-.359375l1.007812-.277343c5.320313-1.488282 8.429688-7.011719 6.941406-12.335938-1.488281-5.324219-7.011718-8.433594-12.335937-6.945312zm0 0"/><path d="m408.597656 76.363281.753906.640625c1.882813 1.605469 4.191407 2.390625 6.484376 2.390625 2.832031 0 5.644531-1.195312 7.625-3.519531 3.585937-4.207031 3.078124-10.527344-1.128907-14.109375l-.769531-.65625c-4.214844-3.582031-10.53125-3.066406-14.109375 1.144531-3.578125 4.210938-3.066406 10.527344 1.144531 14.109375zm0 0"/><path d="m459.660156 137.039062c1.863282 3.179688 5.210938 4.953126 8.648438 4.953126 1.71875 0 3.460937-.445313 5.050781-1.375 4.769531-2.796876 6.367187-8.929688 3.574219-13.699219l-.539063-.914063c-2.828125-4.75-8.96875-6.3125-13.722656-3.488281-4.75 2.828125-6.308594 8.96875-3.484375 13.722656zm0 0"/><path d="m407.816406 218.925781c5.261719-1.6875 8.164063-7.320312 6.480469-12.585937l-.152344-.476563c-1.683593-5.265625-7.316406-8.167969-12.582031-6.484375-5.265625 1.6875-8.167969 7.320313-6.484375 12.585938l.152344.476562c1.359375 4.25 5.296875 6.960938 9.53125 6.960938 1.011719 0 2.039062-.152344 3.054687-.476563zm0 0"/><path d="m219.691406 114.65625c.765625 0 1.546875-.089844 2.324219-.273438l.925781-.21875c5.386719-1.246093 8.742188-6.621093 7.496094-12.007812-1.246094-5.382812-6.621094-8.738281-12.007812-7.492188l-1.050782.246094c-5.375 1.277344-8.695312 6.675782-7.417968 12.054688 1.097656 4.597656 5.199218 7.691406 9.730468 7.691406zm0 0"/><path d="m260.628906 110.519531.9375.03125c.132813.003907.265625.007813.398438.007813 5.347656 0 9.78125-4.226563 9.992187-9.617188.21875-5.523437-4.085937-10.175781-9.609375-10.394531l-1.085937-.035156c-5.511719-.160157-10.148438 4.160156-10.324219 9.683593-.171875 5.527344 4.164062 10.148438 9.691406 10.324219zm0 0"/><path d="m411.886719 260.246094c.136719 0 .273437-.003906.410156-.007813 5.527344-.222656 9.820313-4.882812 9.597656-10.40625l-.046875-1.074219c-.253906-5.519531-4.953125-9.792968-10.460937-9.535156-5.523438.257813-9.789063 4.941406-9.535157 10.460938l.042969.957031c.214844 5.386719 4.652344 9.605469 9.992188 9.605469zm0 0"/><path d="m258.882812 402.683594-.9375.015625c-5.527343.070312-9.949218 4.609375-9.878906 10.136719.070313 5.484374 4.539063 9.878906 10.003906 9.878906h.132813l1.085937-.019532c5.527344-.109374 9.917969-4.683593 9.804688-10.207031-.109375-5.527343-4.644531-9.917969-10.210938-9.804687zm0 0"/><path d="m297.234375 396.78125-.933594.273438c-5.3125 1.535156-8.371093 7.085937-6.835937 12.394531 1.265625 4.382812 5.265625 7.230469 9.609375 7.230469.921875 0 1.855469-.128907 2.785156-.394532l1.015625-.296875c5.304688-1.558593 8.339844-7.121093 6.78125-12.425781-1.558594-5.300781-7.121094-8.339844-12.421875-6.78125zm0 0"/><path d="m220.328125 398.363281-.9375-.238281c-5.359375-1.367188-10.808594 1.867188-12.175781 7.222656-1.363282 5.355469 1.867187 10.808594 7.226562 12.175782l1.027344.257812c.816406.207031 1.632812.300781 2.4375.300781 4.484375 0 8.566406-3.035156 9.703125-7.582031 1.339844-5.363281-1.921875-10.796875-7.28125-12.136719zm0 0"/><path d="m332.621094 380.964844-.792969.488281c-4.722656 2.871094-6.222656 9.03125-3.347656 13.753906 1.882812 3.09375 5.179687 4.804688 8.558593 4.804688 1.773438 0 3.570313-.46875 5.195313-1.457031l.929687-.574219c4.699219-2.910157 6.148438-9.078125 3.238282-13.777344-2.914063-4.699219-9.082032-6.148437-13.78125-3.238281zm0 0"/><path d="m362.640625 356.363281-.648437.6875c-3.800782 4.011719-3.632813 10.347657.378906 14.148438 1.933594 1.835937 4.410156 2.746093 6.882812 2.746093 2.652344 0 5.296875-1.046874 7.265625-3.121093l.746094-.792969c3.773437-4.035156 3.558594-10.371094-.480469-14.144531-4.035156-3.773438-10.371094-3.5625-14.144531.476562zm0 0"/><path d="m418.09375 292.691406c1.195312-5.398437-2.207031-10.742187-7.605469-11.941406-5.394531-1.195312-10.742187 2.207031-11.941406 7.605469l-.207031.925781c-1.230469 5.390625 2.140625 10.757812 7.527344 11.988281.75.171875 1.5.253907 2.238281.253907 4.566406 0 8.6875-3.144532 9.75-7.78125zm0 0"/><path d="m388.796875 339.148438c1.507813.8125 3.132813 1.195312 4.730469 1.195312 3.566406 0 7.019531-1.910156 8.824218-5.269531l.511719-.960938c2.585938-4.886719.714844-10.941406-4.171875-13.527343-4.890625-2.585938-10.945312-.714844-13.527344 4.171874l-.441406.835938c-2.617187 4.867188-.792968 10.9375 4.074219 13.554688zm0 0"/><path d="m181.019531 129.527344c1.628907 0 3.277344-.398438 4.804688-1.234375l.816406-.441407c4.871094-2.621093 6.695313-8.6875 4.074219-13.558593-2.617188-4.867188-8.691406-6.691407-13.554688-4.074219l-.957031.523438c-4.851563 2.65625-6.625 8.738281-3.96875 13.585937 1.820313 3.320313 5.25 5.199219 8.785156 5.199219zm0 0"/><path d="m184.289062 384.011719-.828124-.46875c-4.796876-2.742188-10.910157-1.074219-13.65625 3.722656-2.742188 4.800781-1.074219 10.914063 3.726562 13.65625l.9375.535156c1.554688.871094 3.238281 1.289063 4.902344 1.289063 3.496094 0 6.894531-1.835938 8.730468-5.101563 2.710938-4.816406 1.003907-10.921875-3.8125-13.632812zm0 0"/><path d="m113.773438 170.429688-.5625.933593c-2.839844 4.742188-1.292969 10.890625 3.449218 13.726563 1.609375.964844 3.382813 1.421875 5.128906 1.421875 3.40625 0 6.726563-1.738281 8.601563-4.871094l.484375-.808594c2.875-4.722656 1.375-10.882812-3.351562-13.753906-4.722657-2.871094-10.878907-1.371094-13.75 3.351563zm0 0"/><path d="m112.207031 340.09375c1.859375 3.183594 5.210938 4.960938 8.652344 4.960938 1.714844 0 3.453125-.4375 5.039063-1.367188 4.773437-2.785156 6.382812-8.917969 3.597656-13.691406l-.460938-.789063c-2.738281-4.800781-8.855468-6.472656-13.652344-3.730469-4.804687 2.742188-6.472656 8.855469-3.730468 13.65625.183594.320313.367187.640626.554687.960938zm0 0"/><path d="m141.445312 136.109375-.773437.734375c-3.980469 3.832031-4.105469 10.167969-.273437 14.152344 1.964843 2.042968 4.589843 3.070312 7.214843 3.070312 2.496094 0 4.996094-.925781 6.9375-2.792968l.695313-.664063c4.003906-3.8125 4.160156-10.148437.347656-14.152344-3.8125-4.003906-10.144531-4.160156-14.148438-.347656zm0 0"/><path d="m153.292969 360.65625-.6875-.683594c-3.921875-3.898437-10.261719-3.878906-14.15625.042969-3.898438 3.917969-3.878907 10.257813.042969 14.15625l.75.742187c1.949218 1.921876 4.488281 2.878907 7.027343 2.878907 2.582031 0 5.167969-.996094 7.125-2.984375 3.882813-3.933594 3.835938-10.269532-.101562-14.152344zm0 0"/><path d="m89.722656 255.589844c-.03125 5.527344 4.425782 10.035156 9.953125 10.066406h.058594c5.5 0 9.976563-4.441406 10.007813-9.949219l.007812-.957031c.066406-5.527344-4.363281-10.058594-9.890625-10.125-.039063 0-.078125 0-.117187 0-5.476563 0-9.945313 4.40625-10.007813 9.894531zm0 0"/><path d="m102.75 224.238281c.898438.25 1.804688.367188 2.695312.367188 4.378907 0 8.402344-2.894531 9.636719-7.320313l.261719-.9375c1.507812-5.320312-1.582031-10.851562-6.902344-12.359375-5.324218-1.503906-10.851562 1.585938-12.359375 6.902344l-.285156 1.015625c-1.484375 5.324219 1.628906 10.847656 6.953125 12.332031zm0 0"/><path d="m114.625 294.191406-.234375-.890625c-1.371094-5.355469-6.820313-8.582031-12.179687-7.210937-5.355469 1.375-8.582032 6.828125-7.210938 12.183594.09375.355468.1875.714843.28125 1.070312 1.191406 4.480469 5.242188 7.4375 9.664062 7.4375.855469 0 1.722657-.113281 2.585938-.339844 5.339844-1.425781 8.515625-6.910156 7.09375-12.25zm0 0"/><path d="m299.128906 116.945312.476563.148438c.988281.304688 1.984375.449219 2.964843.449219 4.273438 0 8.230469-2.753907 9.558594-7.046875 1.636719-5.28125-1.316406-10.886719-6.597656-12.523438l-.480469-.148437c-5.277343-1.632813-10.882812 1.320312-12.519531 6.597656-1.636719 5.28125 1.316406 10.886719 6.597656 12.523437zm0 0"/></svg>